# xmcd
#
# Track frame offsets: 
#        150
#        19922
#        37729
#        55720
#        70210
#        89696
#        109574
#        131979
#        148898
#        168176
#        183588
#        203678
#        221427
#        241559
#        255386
#
# Disc length: 3704 seconds
#
# Revision: 0
# Processed by: cddbd v1.5.2PL0 Copyright (c) Steve Scherf et al.
# Submitted via: ExactAudioCopyFreeDBPlugin 1.0
#
DISCID=cd0e760f
DTITLE=34B - STE20试音极品TESTCD
DYEAR=2015
DGENRE=STE
TTITLE0=船歌
TTITLE1=外婆的澎湖湾
TTITLE2=白月光
TTITLE3=青春舞曲
TTITLE4=被遗忘的时光
TTITLE5=忘了我是谁
TTITLE6=一剪梅
TTITLE7=白桦林
TTITLE8=味道
TTITLE9=南泥湾
TTITLE10=鲁冰花
TTITLE11=梦田
TTITLE12=甜蜜蜜
TTITLE13=三月里的小雨
TTITLE14=当我想你的时候
EXTD=
EXTT0=
EXTT1=
EXTT2=
EXTT3=
EXTT4=
EXTT5=
EXTT6=
EXTT7=
EXTT8=
EXTT9=
EXTT10=
EXTT11=
EXTT12=
EXTT13=
EXTT14=
PLAYORDER=
